<svg xmlns="http://www.w3.org/2000/svg" width="128" height="128" viewBox="0 0 128 128"><rect width="100%" height="100%" fill="#DDDDDD"/><path fill="#999999" d="M28.08 69.645h2.99q.82 0 1.38-.2.56-.2.9-.53.34-.33.48-.77.15-.44.15-.93 0-.52-.16-.93-.17-.41-.52-.7-.35-.3-.91-.45-.55-.15-1.33-.15h-2.98v4.66Zm2.51-11.31h-2.51v4.6h2.35q1.52 0 2.29-.55.78-.55.78-1.75 0-1.24-.71-1.77-.7-.53-2.2-.53Zm-5.47-2.29h5.47q1.57 0 2.68.3t1.82.85q.71.55 1.04 1.33.33.78.33 1.76 0 .56-.17 1.07-.16.51-.51.96-.35.44-.88.81-.53.36-1.27.61 3.28.74 3.28 3.55 0 1.01-.39 1.87-.38.85-1.12 1.47-.74.63-1.81.98-1.08.35-2.47.35h-6v-15.91Zm24.92 0h2.97v15.91h-2.97v-6.95h-7.47v6.95H39.6v-15.91h2.97v6.85h7.47v-6.85Zm22.97 0v2.44h-4.8v13.47h-2.95v-13.47h-4.8v-2.44h12.55Zm5.05 7.57h1.85q.83 0 1.46-.21.62-.21 1.02-.57.4-.37.6-.88.2-.5.2-1.11 0-1.21-.8-1.86-.8-.65-2.44-.65h-1.89v5.28Zm5.48 2.47 3.98 5.87h-2.67q-.76 0-1.1-.59l-3.35-5.1q-.18-.28-.41-.4-.23-.12-.67-.12h-1.26v6.21H75.1v-15.91h4.85q1.62 0 2.78.34 1.16.34 1.9.94.74.61 1.1 1.45.35.84.35 1.85 0 .8-.24 1.52-.23.71-.68 1.3-.45.58-1.1 1.02-.65.44-1.49.69.29.17.53.39.24.23.44.54Zm9.05-.14h5.06l-1.94-5.29q-.14-.35-.29-.83-.16-.49-.31-1.05-.14.56-.3 1.05-.15.49-.29.86l-1.93 5.26Zm4.04-9.9 6.25 15.91h-2.29q-.39 0-.63-.19t-.36-.48l-1.19-3.25h-6.59l-1.19 3.25q-.09.25-.34.46-.25.21-.63.21h-2.31l6.26-15.91h3.02Z"/></svg>