<svg xmlns="http://www.w3.org/2000/svg" width="16" height="16" viewBox="0 0 16 16"><rect width="100%" height="100%" fill="#DDDDDD"/><path fill="#999999" d="M3.1 8.765h.41q.11 0 .19-.02.07-.03.12-.07.05-.05.07-.11.02-.06.02-.13t-.03-.12q-.02-.06-.07-.1-.04-.04-.12-.06-.08-.02-.18-.02H3.1v.63Zm.34-1.54H3.1v.63h.32q.21 0 .31-.07.11-.08.11-.24 0-.17-.1-.25-.09-.07-.3-.07Zm-.74-.31h.74q.22 0 .37.04t.25.12q.09.07.14.18.04.1.04.24 0 .07-.02.14t-.07.14q-.05.06-.12.11-.07.04-.17.08.45.1.45.48 0 .14-.06.26-.05.11-.15.2-.1.08-.25.13-.14.05-.33.05H2.7v-2.17Zm3.4 0h.4v2.17h-.4v-.95H5.08v.95h-.41v-2.17h.41v.93H6.1v-.93Zm3.13 0v.33h-.66v1.84h-.4v-1.84h-.65v-.33h1.71Zm.69 1.03h.25q.11 0 .2-.03.08-.02.14-.07.05-.05.08-.12.03-.07.03-.16 0-.16-.11-.25t-.34-.09h-.25v.72Zm.74.34.55.8h-.37q-.1 0-.15-.08l-.45-.7q-.03-.03-.06-.05-.03-.02-.09-.02h-.17v.85h-.41v-2.17h.66q.23 0 .38.05.16.04.26.12.1.09.15.2.05.12.05.26 0 .1-.03.2t-.09.18q-.07.08-.15.14-.09.06-.21.09.04.03.07.06.04.03.06.07Zm1.24-.02h.69l-.27-.72q-.02-.05-.04-.11-.02-.07-.04-.15-.02.08-.04.15-.02.06-.04.11l-.26.72Zm.55-1.35.85 2.17h-.31q-.05 0-.09-.03-.03-.02-.05-.06l-.16-.44h-.9l-.16.44q-.01.03-.05.06-.03.03-.08.03h-.32l.86-2.17h.41Z"/></svg>