<svg xmlns="http://www.w3.org/2000/svg" width="48" height="48" viewBox="0 0 48 48"><rect width="100%" height="100%" fill="#DDDDDD"/><path fill="#999999" d="M10.935 26.05h1.09q.3 0 .5-.07.21-.07.33-.19.12-.12.18-.28.05-.16.05-.34 0-.19-.06-.34-.06-.15-.19-.26-.13-.1-.33-.16t-.48-.06h-1.09v1.7Zm.92-4.11h-.92v1.67h.86q.55 0 .83-.2.28-.2.28-.64 0-.45-.25-.64-.26-.19-.8-.19Zm-1.99-.83h1.99q.57 0 .97.1.4.11.66.31t.38.49q.12.28.12.64 0 .2-.06.39-.06.18-.19.34-.12.17-.32.3-.19.13-.46.22 1.19.27 1.19 1.29 0 .37-.14.68-.14.31-.4.54-.27.22-.66.35-.4.13-.9.13h-2.18v-5.78Zm9.06 0h1.08v5.78h-1.08v-2.53h-2.72v2.53h-1.08v-5.78h1.08v2.48h2.72v-2.48Zm8.35 0v.88h-1.74v4.9h-1.08v-4.9h-1.74v-.88h4.56Zm1.84 2.75h.67q.3 0 .53-.08.23-.07.37-.21.15-.13.22-.32.07-.18.07-.4 0-.44-.29-.68-.29-.23-.88-.23h-.69v1.92Zm1.99.89 1.45 2.14h-.97q-.28 0-.4-.22l-1.22-1.85q-.07-.1-.15-.15-.08-.04-.24-.04h-.46v2.26h-1.08v-5.78h1.77q.58 0 1.01.12.42.12.69.34.27.22.4.53.12.3.12.67 0 .29-.08.55-.09.26-.25.47-.16.22-.4.38-.24.16-.54.25.1.06.19.14.09.08.16.19Zm3.29-.04h1.84l-.7-1.93q-.05-.13-.11-.3-.06-.18-.11-.38-.05.2-.11.38t-.11.31l-.7 1.92Zm1.47-3.6 2.27 5.78h-.83q-.14 0-.23-.07t-.13-.17l-.43-1.18h-2.4l-.43 1.18q-.03.09-.12.16-.1.08-.23.08h-.84l2.27-5.78h1.1Z"/></svg>